<svg id="SvgjsSvg1001" width="288" height="288" xmlns="http://www.w3.org/2000/svg" version="1.1" xmlns:xlink="http://www.w3.org/1999/xlink" xmlns:svgjs="http://svgjs.com/svgjs"><defs id="SvgjsDefs1002"></defs><g id="SvgjsG1008"><svg xmlns="http://www.w3.org/2000/svg" viewBox="0 0 128 128" width="288" height="288"><linearGradient id="a" x1="11.862" x2="116.138" y1="11.862" y2="116.138" gradientUnits="userSpaceOnUse"><stop offset="0" stop-color="#495665" class="stopColorDDD svgShape"></stop><stop offset="1" stop-color="#0040f1" class="stopColorBCBCBC svgShape"></stop></linearGradient><path fill="url(#a)" d="M87.5 128h-47C18.1 128 0 109.9 0 87.5v-47C0 18.1 18.1 0 40.5 0h47C109.9 0 128 18.1 128 40.5v47c0 22.4-18.1 40.5-40.5 40.5z"></path><path d="m61.5 89.6 5-19 11.9-4.4 3-11.2-.1-.2-11.7 4.3L78 27.2H54L42.9 68.8l-9.2 3.4-3.1 11.5 9.3-3.4-6.6 24.5h64l4.1-15.2z" opacity=".2" fill="#40514e" class="color000 svgShape"></path><path fill="#f5f5f5" d="m59.5 87.6 5-19 11.9-4.4 3-11.2-.1-.2-11.7 4.3L76 25.2H52L40.9 66.8l-9.2 3.4-3.1 11.5 9.3-3.4-6.6 24.5h64l4.1-15.2z" class="colorfff svgShape"></path></svg></g></svg>