<svg class="svg-icon" style="width: 1em; height: 1em;vertical-align: middle;fill: currentColor;overflow: hidden;" viewBox="0 0 1024 1024" version="1.1" xmlns="http://www.w3.org/2000/svg"><path d="M752 384H376v-96c0-36.2 14.2-70.2 40-96s59.8-40 96-40 70.2 14.2 96 40 40 59.8 40 96c0 15.4 12.6 28 28 28s28-12.6 28-28c0-106.4-87.8-193.4-194.6-192-105.4 1.4-189.4 89-189.4 194.6V384h-48c-44 0-80 36-80 80v384c0 44 36 80 80 80h480c44 0 80-36 80-80V464c0-44-36-80-80-80zM540 633.6v137.6c0 15-11.6 28-26.6 28.8-16 0.8-29.4-12-29.4-28v-138.4c-23-11.2-38.2-35.6-35.8-63.4 2.8-31 28.2-55.8 59.2-58 37.4-2.6 68.6 27 68.6 63.8 0 25.4-14.6 47.2-36 57.6z" fill="" /></svg>